# xmcd
#
# Track frame offsets: 
#        150
#        12400
#        25825
#        38882
#        53202
#        65852
#        78300
#        92160
#        103765
#        117420
#        129522
#        143342
#        158067
#        170732
#        182325
#        194535
#        206865
#        220617
#        232485
#        245967
#        258992
#        271332
#        284035
#        297830
#        310460
#
# Disc length: 4282 seconds
#
# Revision: 0
# Processed by: cddbd v1.5.2PL0 Copyright (c) Steve Scherf et al.
# Submitted via: ExactAudioCopy v0.99pb4
#
DISCID=8710b819
DTITLE=Little Walter - The Best of Little Walter
DYEAR=1900
DGENRE=Blues
TTITLE0=Juke
TTITLE1=Can't Hold Out Much Longer
TTITLE2=Mean Old World
TTITLE3=Sad Hours
TTITLE4=Off The Wall
TTITLE5=Tell Me Mama
TTITLE6=Blues With A Feeling
TTITLE7=Too Late
TTITLE8=You're So Fine
TTITLE9=Last Night
TTITLE10=You'd Better Watch Yourself
TTITLE11=Blue Light
TTITLE12=Thunderbird
TTITLE13=My Babe
TTITLE14=I Got To Go
TTITLE15=Boom Boom Out Goes The Light
TTITLE16=Flying Saucer
TTITLE17=It's Too Late Brother
TTITLE18=Teenage Beat
TTITLE19=Just A Feeling
TTITLE20=Shake Dancer
TTITLE21=Ah'w Baby
TTITLE22=Confessin' The Blues
TTITLE23=Back Track
TTITLE24=Just Your Fool
EXTD=
EXTT0=
EXTT1=
EXTT2=
EXTT3=
EXTT4=
EXTT5=
EXTT6=
EXTT7=
EXTT8=
EXTT9=
EXTT10=
EXTT11=
EXTT12=
EXTT13=
EXTT14=
EXTT15=
EXTT16=
EXTT17=
EXTT18=
EXTT19=
EXTT20=
EXTT21=
EXTT22=
EXTT23=
EXTT24=
PLAYORDER=
